<?xml version="1.0" encoding="utf-8"?>
<!-- Generator: Adobe Illustrator 17.0.0, SVG Export Plug-In . SVG Version: 6.00 Build 0)  -->
<!DOCTYPE svg PUBLIC "-//W3C//DTD SVG 1.1//EN" "http://www.w3.org/Graphics/SVG/1.1/DTD/svg11.dtd">
<svg version="1.1" xmlns="http://www.w3.org/2000/svg" xmlns:xlink="http://www.w3.org/1999/xlink" x="0px" y="0px" width="400px"
	 height="400px" viewBox="0 0 400 400" enable-background="new 0 0 400 400" xml:space="preserve">
<g id="Capa_1" display="none">
	<g id="Ebene_x0020_1" display="inline">
		<rect fill="#84C225" width="400" height="400"/>
		<path fill="#FFFFFF" d="M54.858,101.325h24.102V72.768h27.949V49.881H78.959V21.324H54.858v28.557H26.909v22.887h27.948
			C54.858,72.768,54.858,101.325,54.858,101.325z"/>
		<path fill="#FFFFFF" d="M193.548,202.352c0,11.479-4.579,21.062-13.769,28.774c-8.829,7.413-19.374,11.119-31.607,11.119
			c-12.324,0-23.472-3.917-33.475-11.751l3.615-17.295c8.466,10.003,18.169,15.005,29.046,15.005c8.196,0,15.216-2.35,21.122-7.051
			c6.358-5.061,9.522-11.45,9.522-19.163c0-9.702-4.701-17.324-14.132-22.868c-8.707-4.339-17.415-8.678-26.124-12.957
			c-9.37-5.906-14.041-14.131-14.041-24.708c0-8.256,3.376-15.065,10.155-20.489c6.357-5.062,13.83-7.593,22.417-7.593
			c6.809,0,13.68,1.929,20.578,5.816l-3.464,15.547c-5.515-4.82-10.998-7.231-16.422-7.231c-4.579,0-8.587,1.235-11.992,3.706
			c-3.706,2.772-5.574,6.296-5.574,10.605c0,5.033,3.194,9.491,9.55,13.318c5.515,2.531,11.028,5.062,16.512,7.593
			c8.648,4.068,15.035,8.466,19.163,13.227C190.566,182.797,193.548,191.595,193.548,202.352L193.548,202.352z"/>
		<polygon id="_x31_" fill="#FFFFFF" points="268.695,114.429 232.146,244.986 195.688,114.429 210.693,114.429 232.146,199.067 
			253.689,114.429 		"/>
		<path id="_x31_2" fill="#FFFFFF" d="M336.67,242.245h-5.906c-18.26,0-33.837-6.327-46.793-19.012
			c-12.927-12.685-19.404-27.872-19.404-45.499c0-17.656,6.448-32.812,19.374-45.437c12.926-12.625,28.504-18.923,46.824-18.923
			c0.814,0,2.802,0.12,5.906,0.361v14.101c-2.712-0.21-4.67-0.331-5.906-0.331c-14.072,0-26.093,4.88-36.067,14.643
			c-9.973,9.762-14.944,21.634-14.944,35.584c0,12.354,3.978,23.202,11.962,32.571c7.955,9.341,18.018,15.066,30.131,17.115v-68.85
			h14.824L336.67,242.245L336.67,242.245z"/>
		<path id="_x31_23" fill="#FFFFFF" d="M140.152,339.076c0,5.262-2.099,9.653-6.311,13.188c-4.046,3.397-8.881,5.095-14.487,5.095
			c-5.648,0-10.757-1.795-15.342-5.386l1.658-7.926c3.88,4.585,8.327,6.878,13.312,6.878c3.756,0,6.973-1.077,9.68-3.232
			c2.914-2.32,4.364-5.248,4.364-8.783c0-4.447-2.154-7.941-6.477-10.482c-3.991-1.988-7.982-3.977-11.973-5.937
			c-4.295-2.707-6.436-6.477-6.436-11.324c0-3.784,1.547-6.905,4.655-9.391c2.914-2.32,6.338-3.48,10.274-3.48
			c3.12,0,6.269,0.883,9.431,2.666l-1.587,7.126c-2.528-2.21-5.041-3.314-7.526-3.314c-2.1,0-3.937,0.566-5.497,1.698
			c-1.698,1.27-2.555,2.885-2.555,4.86c0,2.307,1.463,4.35,4.377,6.104c2.528,1.16,5.055,2.321,7.569,3.481
			c3.963,1.864,6.891,3.88,8.783,6.063C138.784,330.114,140.152,334.146,140.152,339.076L140.152,339.076z"/>
		<path id="_x31_234" fill="#FFFFFF" d="M177.742,341.466c0,4.336-1.616,8.079-4.833,11.199c-3.217,3.135-7.111,4.695-11.669,4.695
			c-4.53,0-8.424-1.56-11.669-4.695c-3.244-3.12-4.874-6.863-4.874-11.199V298.78h6.795v42.686c0,2.665,0.966,4.93,2.885,6.767
			c1.933,1.851,4.226,2.776,6.863,2.776c2.666,0,4.958-0.925,6.85-2.776c1.905-1.837,2.858-4.102,2.858-6.767V298.78h6.794
			L177.742,341.466L177.742,341.466z"/>
		<path id="_x31_2345" fill="#FFFFFF" d="M209.255,317.506c0,4.971-1.795,9.253-5.385,12.843c-3.578,3.604-7.955,5.51-13.105,5.731
			v20.714h-6.795V298.78h6.035c5.302,0,9.846,1.851,13.602,5.565C207.377,308.046,209.255,312.438,209.255,317.506L209.255,317.506z
			 M202.461,317.506c0-3.287-1.147-6.104-3.425-8.466c-2.278-2.361-5.04-3.645-8.271-3.866v24.594
			c3.232-0.221,5.993-1.491,8.271-3.824C201.314,323.61,202.461,320.806,202.461,317.506L202.461,317.506z"/>
		<path id="_x31_23456" fill="#FFFFFF" d="M239.07,317.506c0,4.971-1.795,9.253-5.385,12.843c-3.578,3.604-7.955,5.51-13.105,5.731
			v20.714h-6.795V298.78h6.035c5.302,0,9.846,1.851,13.602,5.565C237.192,308.046,239.07,312.438,239.07,317.506L239.07,317.506z
			 M232.276,317.506c0-3.287-1.147-6.104-3.425-8.466c-2.278-2.361-5.04-3.645-8.271-3.866v24.594
			c3.232-0.221,5.993-1.491,8.271-3.824C231.129,323.61,232.276,320.806,232.276,317.506L232.276,317.506z"/>
		<path id="_x31_234567" fill="#FFFFFF" d="M303.009,327.793c0,8.079-2.955,15.039-8.88,20.854
			c-5.924,5.813-13.064,8.713-21.432,8.713c-8.383,0-15.536-2.9-21.461-8.713c-5.924-5.815-8.88-12.775-8.88-20.854
			c0-8.092,2.955-15.038,8.88-20.824c5.924-5.786,13.077-8.673,21.461-8.673c8.368,0,15.508,2.887,21.432,8.673
			S303.009,319.701,303.009,327.793z M296.049,327.793c0-6.393-2.278-11.835-6.836-16.309c-4.557-4.474-10.067-6.711-16.515-6.711
			c-6.436,0-11.946,2.237-16.517,6.711c-4.571,4.474-6.863,9.915-6.863,16.309c0,6.409,2.293,11.877,6.863,16.378
			c4.571,4.502,10.081,6.754,16.517,6.754c6.421,0,11.917-2.251,16.488-6.754C293.756,339.67,296.049,334.202,296.049,327.793
			L296.049,327.793z"/>
		<path id="_x31_2345678" fill="#FFFFFF" d="M334.743,356.794h-7.609l-11.931-20.632v20.632h-6.795v-58.015h3.481
			c5.289,0,9.804,1.851,13.533,5.565c3.742,3.702,5.607,8.093,5.607,13.161c0,3.273-0.87,6.352-2.596,9.253
			c-1.727,2.9-4.102,5.205-7.113,6.932L334.743,356.794L334.743,356.794z M324.151,317.506c0-2.776-0.842-5.262-2.513-7.443
			c-1.671-2.183-3.811-3.646-6.435-4.406v23.628c2.652-0.759,4.792-2.21,6.463-4.377
			C323.323,322.753,324.151,320.281,324.151,317.506z"/>
		<polygon id="_x31_23456789" fill="#FFFFFF" points="355.554,305.174 347.655,305.174 347.655,356.794 340.86,356.794 
			340.86,305.174 332.933,305.174 332.933,298.779 355.554,298.779 		"/>
	</g>
</g>
<g id="Capa_2">
	<path fill="#277DAD" d="M239.969,350.34c0.481,0.026,0.956,0.071,1.445,0.071h110.031c12.871,0,23.339-10.472,23.339-23.34V72.003
		c0-12.866-10.468-23.34-23.339-23.34H241.413c-0.484,0-0.963,0.043-1.445,0.07V18.285L25.217,46.946v305.368l214.752,29.402V350.34
		z M239.969,187.356v-10.948h1.608v-5.022l6.832-6.141L239.969,187.356z M253.878,164.589h2.951v-1.667h7.508v1.384l-24.368,64.049
		v-27.352L253.878,164.589z M361.446,237.009h-0.696l0.104-33.076h0.592V237.009z M241.414,62.001h110.031
		c5.516,0,10.002,4.486,10.002,10.002v123.993h-7.078v1.667h-33.526v-1.667h-8.049v7.936h1.334v7.627h-1.334v8.049h8.049v-1.45
		h11.839c-3.431,3.364-7.41,5.448-12.06,6.321v-1.14h-7.938v1.25c-5.177-0.693-9.593-2.858-13.448-6.59
		c-3.826-3.705-6.108-7.998-6.928-13.07h0.969v-8.047h-1.113c0.765-5.164,3.041-9.568,6.922-13.417
		c3.889-3.854,8.349-6.087,13.598-6.79v1.25h7.938v-1.064c3.627,0.644,6.962,2.111,9.954,4.381v4.129h8.049v-1.434l11.179,0.08
		v1.352h8.049v-7.94h-3.513c-3.715-6.102-8.632-11.099-14.637-14.867c-5.812-3.653-12.219-5.813-19.086-6.447v-1.915h-7.938v1.878
		c-10.85,0.776-20.292,5.101-28.093,12.866c-7.801,7.763-12.178,17.154-13.025,27.934h-1.887v8.047h1.908
		c0.99,10.713,5.431,20.012,13.243,27.67c7.794,7.652,17.156,11.911,27.855,12.685v1.667h7.938v-1.713
		c6.682-0.685,12.927-2.814,18.624-6.331v6.044h7.94v-1.556h7.182v1.556h7.079v82.124c0,5.516-4.486,10.003-10.003,10.003H241.408
		c-0.492,0-0.97-0.079-1.445-0.151v-92.093h1.409v-5.968l-0.062-0.351l28.234-73.924h2.725v-7.936h-7.938v1.33h-7.511v-0.296
		l12.838-11.536h5.197v-7.626h-7.626v5.848l-13.669,12.28h-4.676v4.205l-8.824,7.925h-0.094V62.144
		C240.444,62.077,240.92,62.001,241.414,62.001z M339.246,229.227v3.861c-5.63,4.001-11.881,6.421-18.624,7.18v-1.263h-7.938v1.326
		c-9.403-0.759-17.615-4.545-24.434-11.266c-6.811-6.707-10.749-14.822-11.705-24.134h1.058v-8.051h-1.091
		c0.837-9.392,4.722-17.604,11.576-24.423c6.857-6.824,15.117-10.692,24.596-11.52v1.32h7.938v-1.174
		c5.757,0.613,11.184,2.474,16.169,5.548c5.158,3.175,9.423,7.366,12.705,12.469h-10.869v-1.667h-5.06
		c-3.784-2.944-8.129-4.805-12.946-5.546v-2.011h-7.938v1.824c-6.581,0.747-12.298,3.513-17.036,8.256
		c-4.741,4.738-7.541,10.426-8.349,16.927h-1.96v8.047h1.983c0.876,6.44,3.735,12.022,8.514,16.625
		c4.767,4.585,10.427,7.268,16.847,8v1.723h7.938v-1.888c7.04-1.01,12.962-4.296,17.635-9.782h4.037v-8.049h-7.938v1.774h-13.513
		v-1.774h-1.777v-7.627h1.777v-1.331h33.525v1.331h1.537c-0.013,2.716-0.048,8.212-0.095,16.483v16.593h-1.442v1.448h-7.183v-9.23
		L339.246,229.227L339.246,229.227z M58.787,234.869c-7.152-0.193-14.132-2.381-17.596-4.561l2.822-12.533
		c3.757,2.16,9.567,4.367,15.611,4.465c6.584,0.117,10.073-2.781,10.073-7.268c0-4.285-3.022-6.746-10.63-9.732
		c-10.38-3.963-17.055-10.16-17.055-19.942c0-11.481,8.792-20.499,23.619-20.892c7.216-0.191,12.574,1.314,16.426,3.067
		l-3.276,12.707c-2.59-1.298-7.181-3.165-13.426-3.061c-6.191,0.102-9.175,3.184-9.175,6.716c0,4.341,3.548,6.231,11.73,9.532
		c11.355,4.467,16.767,10.854,16.767,20.646C84.673,225.658,76.284,235.335,58.787,234.869z M128.765,235.667l-18.175-0.469
		l-21.429-70.275l16.515-0.423l8.257,29.812c2.332,8.425,4.463,16.568,6.095,25.47l0.314,0.007
		c1.737-8.558,3.888-17.029,6.265-25.212l8.928-30.842l17.128-0.436L128.765,235.667z M223.121,234.593
		c-5.522,1.68-15.864,3.901-26.068,3.634c-13.871-0.372-23.75-4.038-30.549-10.764c-6.736-6.44-10.398-16.052-10.295-26.798
		c0.11-24.317,17.861-38.677,42.661-39.32c9.996-0.264,17.791,1.46,21.653,3.178l-3.751,13.897
		c-4.31-1.744-9.637-3.127-18.131-2.985c-14.354,0.233-25.013,8.323-25.013,24.363c0,15.278,9.656,24.454,23.756,24.694
		c4.003,0.065,7.21-0.329,8.598-0.977v-15.844l-11.893-0.068v-13.264l29.033-0.102L223.121,234.593L223.121,234.593z"/>
	
		<text transform="matrix(0.9981 0.0622 -0.0622 0.9981 91.8249 337.3355)" opacity="0.3" fill="#FFFFFF" font-family="'MyriadPro-Regular'" font-size="22">AblyPeru</text>
</g>
</svg>
